<svg width="14" height="26" viewBox="0 0 14 26" fill="none" xmlns="http://www.w3.org/2000/svg">
<path fill-rule="evenodd" clip-rule="evenodd" d="M11.1448 4.31762C11.9188 4.28974 12.6928 4.31142 13.4667 4.30832C13.5627 4.30832 13.6556 4.30832 13.7856 4.30832V0.281349C13.3708 0.237982 12.9404 0.179124 12.507 0.160538C11.7114 0.126464 10.9188 0.0861938 10.1232 0.101682C8.90958 0.126464 7.761 0.423842 6.75793 1.1425C5.60626 1.96958 4.97779 3.13431 4.73631 4.50658C4.63414 5.07345 4.60938 5.65891 4.59699 6.23508C4.57223 7.1396 4.5908 8.04412 4.5939 8.94864V9.28629H0.739502V13.7872H4.56913V25.0999H9.25013V13.8089H13.0705C13.2655 12.3096 13.4575 10.8289 13.6556 9.28629C13.3491 9.28629 13.0736 9.28629 12.798 9.28629C11.7114 9.28939 9.21917 9.28629 9.21917 9.28629C9.21917 9.28629 9.23155 7.05596 9.25632 6.08639C9.29657 4.76059 10.0829 4.35479 11.1448 4.31762Z" fill="#1E4FAD"/>
</svg>
