<svg width="26" height="25" viewBox="0 0 26 25" fill="none" xmlns="http://www.w3.org/2000/svg">
<path d="M24.813 6.6404C24.652 5.05749 24.0453 3.66044 22.8688 2.53598C21.6336 1.35577 20.1227 0.835361 18.4633 0.745528C15.6399 0.593742 8.93728 0.494617 6.5813 0.878729C3.89097 1.3186 2.1294 2.88912 1.38329 5.54693C0.81055 7.59139 0.925096 17.0176 1.25945 19.0404C1.71455 21.8035 3.34608 23.5785 6.08595 24.2848C7.98064 24.7711 17.2931 24.7091 19.3828 24.3715C22.1475 23.9254 23.9276 22.2992 24.6459 19.5639C25.1969 17.4637 25.005 8.53308 24.813 6.6404ZM22.6026 18.6501C22.2806 20.7503 20.8905 22.0482 18.7791 22.2806C16.8411 22.4943 8.18808 22.612 6.39246 22.1071C4.67424 21.627 3.68973 20.4436 3.40491 18.712C3.12938 17.0579 3.06436 8.79329 3.40182 6.58155C3.7176 4.49991 5.11076 3.20198 7.20978 2.96656C9.33666 2.72804 16.9959 2.70016 19.033 3.01303C21.1289 3.33519 22.4261 4.72914 22.6552 6.84485C22.8657 8.82117 22.9245 16.5282 22.6026 18.6501ZM12.9991 6.46074C9.5936 6.45764 6.83826 9.21767 6.84136 12.6282C6.84136 16.0233 9.59051 18.7771 12.9867 18.7833C16.3953 18.7895 19.1599 16.0357 19.1599 12.6282C19.1599 9.21767 16.4077 6.46074 12.9991 6.46074ZM12.9557 16.6087C10.7824 16.6025 9.01469 14.809 9.01469 12.6065C9.01469 10.4072 10.7979 8.63841 13.0146 8.63841C15.2096 8.63841 16.9804 10.4258 16.9804 12.6406C16.9804 14.8461 15.191 16.6118 12.9557 16.6087ZM20.8379 6.23151C20.8348 7.03381 20.1971 7.66573 19.3952 7.66573C18.5934 7.66573 17.9587 7.03381 17.9556 6.23151C17.9494 5.41992 18.5965 4.7756 19.4107 4.7818C20.2063 4.78489 20.841 5.42921 20.8379 6.23151Z" fill="url(#paint0_linear)"/>
<defs>
<linearGradient id="paint0_linear" x1="21.814" y1="2.3114" x2="1.03082" y2="26.5931" gradientUnits="userSpaceOnUse">
<stop offset="0.0108" stop-color="#3542E0"/>
<stop offset="0.1748" stop-color="#3841DF"/>
<stop offset="0.2744" stop-color="#403FDA"/>
<stop offset="0.357" stop-color="#4E3CD2"/>
<stop offset="0.4301" stop-color="#6337C7"/>
<stop offset="0.4971" stop-color="#7D31B9"/>
<stop offset="0.5595" stop-color="#9E2AA8"/>
<stop offset="0.6173" stop-color="#C32193"/>
<stop offset="0.6236" stop-color="#C82091"/>
<stop offset="0.7612" stop-color="#F62B37"/>
<stop offset="1" stop-color="#FFC658"/>
</linearGradient>
</defs>
</svg>
