<svg width="27" height="19" viewBox="0 0 27 19" fill="none" xmlns="http://www.w3.org/2000/svg">
<path fill-rule="evenodd" clip-rule="evenodd" d="M2.99955 17.5965C2.02435 17.2744 1.36802 16.6362 1.01508 15.6667C0.15752 13.3031 -0.0963429 3.41532 1.55687 1.46998C2.12342 0.803975 2.85095 0.41366 3.7178 0.32073C8.1728 -0.15941 21.9495 -0.0912551 23.5346 0.481815C24.4634 0.816365 25.1229 1.42659 25.482 2.3559C26.42 4.79687 26.4541 13.6872 25.3581 16.0414C25.0609 16.6796 24.578 17.1287 23.9619 17.4509C22.2994 18.3306 5.18836 18.3183 2.99955 17.5965ZM10.0799 12.9624C12.7609 11.5715 15.4172 10.193 18.1075 8.79907C15.4141 7.39273 12.7578 6.00498 10.0799 4.60793C10.0799 7.40203 10.0799 10.1652 10.0799 12.9624Z" fill="#FD3832"/>
</svg>
